<?xml version="1.0" encoding="UTF-8" standalone="no"?>
<svg
   version="1.1"
   style="display:block"
   viewBox="0 0 1165.6848 1052.9246"
   width="582.84241"
   height="526.46228"
   preserveAspectRatio="none"
   id="svg19"
   sodipodi:docname="tomato-too.svg"
   inkscape:version="1.4.2 (ebf0e940, 2025-05-08)"
   xmlns:inkscape="http://www.inkscape.org/namespaces/inkscape"
   xmlns:sodipodi="http://sodipodi.sourceforge.net/DTD/sodipodi-0.dtd"
   xmlns="http://www.w3.org/2000/svg"
   xmlns:svg="http://www.w3.org/2000/svg">
  <defs
     id="defs19" />
  <sodipodi:namedview
     id="namedview19"
     pagecolor="#ffffff"
     bordercolor="#666666"
     borderopacity="1.0"
     inkscape:showpageshadow="2"
     inkscape:pageopacity="0.0"
     inkscape:pagecheckerboard="false"
     inkscape:deskcolor="#d1d1d1"
     inkscape:zoom="0.40625"
     inkscape:cx="289.23077"
     inkscape:cy="381.53846"
     inkscape:window-width="1792"
     inkscape:window-height="1061"
     inkscape:window-x="0"
     inkscape:window-y="31"
     inkscape:window-maximized="1"
     inkscape:current-layer="svg19" />
  <path
     fill="#d4231e"
     d="m 784.98009,145.40025 c 18.41,-3.489 41.59,-20.343 57.65,-30.319 4.64,-2.884 16.03,-13.314 20.94,-10.263 -0.42,5.435 -2.85,10.104 -4.44,15.173 -8.04,25.62 -19.95,34.717 -42,47.732 23.14,1.963 55.77,5.59 78.09,12.579 17.18,3.217 34.27,7.255 51.46,10.388 48.67,8.871 94.60001,35.547 135.63001,62.184 7.59,4.927 28.66,26.936 26.9,35.947 l -1.68,0.952 c -4.79,-1.328 -27.08,-17.781 -33.8,-21.887 -13.4,-8.117 -27.59,-14.836 -42.36,-20.052 15.99,12.961 32.03,27.347 45.13,43.467 50.19,61.783 78.14,150.961 87,228.873 7.2,63.36 -3.81,159.06 -26.93,218.82 -42.26,118.01 -108.5,218.73 -224.83001,272.60995 -40.81,18.9 -108.89,38.05 -153.43,38.46 -8.86,1.92 -44.81,2.88 -54.96,2.86 -81.23,-0.13 -157.216,-8.98 -229.634,-47.74 -114.544,-61.30995 -199.143,-171.84995 -236.022,-295.58995 -40.314,-135.27 -28.344,-262.592 38.09,-386.507 -2.129,0.431 -1.608,0.072 -3.177,1.232 -14.397,10.645 -25.506,17.669 -42.823,22.128 26.482,-33.521 63.793,-71.109 100.993,-91.823 24.671,-24.573 65.518,-48.856 98.288,-61.406 11.822,-7.097 47.263,-15.364 60.977,-19.697 15.361,1.646 28.552,3.213 43.832,6.031 3.766,3.603 8.169,7.518 11.357,11.559 2.776,-0.135 9.215,-2.808 12.142,-3.889 1.271,0.555 4.127,1.361 4.167,2.412 0.57,12.605 9.36,12.381 24.12,14.788 12.6,2.057 25.26,3.624 37.98,4.697 16.8,1.496 50.3,2.406 64.14,9.405 3.38,-4.471 6.09,-9.261 11.79,-10.062 16.21,3.718 4,33.091 10.92,44.662 12.85,21.47 35.7,33.183 44.77,58.539 1.71,4.729 11.82,25.663 13.64,26.772 l 1.71,-0.411 c -2.47,-9.331 -4.39,-16.985 -6.22,-26.522 -3.16,-28.596 -18.78,-45.091 -27.3,-71.604 -1.52,-4.739 -0.17,-7.103 2.16,-11.012 -1.02,-4.796 -0.41,-10.142 -0.16,-15.124 15.41,-3.745 52.22,-2.165 59.4,-9.958 0.19,-2.309 0.25,-3.194 0.78,-5.433 l 4.4,0.097 0.56,-0.621 c -12.95,-6.425 -46.84,-6.826 -49.43,-21.396 2.85,-12.216 37.04,-13.46 35.5,-27.853 -2.3,-2.457 -2.08,-2.379 -5.32,-3.198 z"
     id="path2" />
  <path
     fill="#a01611"
     d="m 490.04209,173.52125 c 15.361,1.646 28.552,3.213 43.832,6.031 3.766,3.603 8.169,7.518 11.357,11.559 2.776,-0.135 9.215,-2.808 12.142,-3.889 1.271,0.555 4.127,1.361 4.167,2.412 0.57,12.605 9.36,12.381 24.12,14.788 12.6,2.057 25.26,3.624 37.98,4.697 16.8,1.496 50.3,2.406 64.14,9.405 3.38,-4.471 6.09,-9.261 11.79,-10.062 16.21,3.718 4,33.091 10.92,44.662 12.85,21.47 35.7,33.183 44.77,58.539 1.71,4.729 11.82,25.663 13.64,26.772 l 1.71,-0.411 c 2.1,4.345 6.37,13.036 4.83,17.418 l -2.49,-0.007 c -10.1,-5.706 -21.07,-26.653 -27.15,-36.954 -9.43,8.151 -10.07,7.339 -9.89,20.012 0.23,17.244 17.15,76.197 12.64,83.269 -3.17,1.154 -3.03,1.361 -6.27,0.782 -4.65,-4.61 -14.19,-25.095 -17.98,-32.099 -4.77,-8.856 -10.01,-17.447 -15.7,-25.736 -6.74,-14.159 -16.58,-29.604 -22.58,-43.42 -11.63,-26.798 -21.33,-66.972 -42.23,-88.502 -13.12,0.239 -25.5,1.163 -38.74,1.058 -16.63,-0.132 -34.78,-1.623 -51.251,0.092 -32.887,3.425 -73.913,17.016 -103.977,30.599 -28.358,12.812 -60.561,32.068 -89.996,41.104 -10.423,20.787 -18.057,45.014 -24.105,67.446 -50.466,187.158 56.629,408.498 228.449,494.038 66.58,33.15 148.6,45.84 222.05,50.84 15.96,0.96 37.35,0.09 53.8,-0.18 -28.58,35.81 -56.72,69.48 -78.88,110.05995 -2.76,5.05 -11.04,15.98 -10.46,21.3 3.3,0.93 4.3,0.84 7.63,0.92 -8.86,1.92 -44.81,2.88 -54.96,2.86 -81.23,-0.13 -157.216,-8.98 -229.634,-47.74 -114.544,-61.30995 -199.143,-171.84995 -236.022,-295.58995 -40.314,-135.27 -28.344,-262.592 38.09,-386.507 -2.129,0.431 -1.608,0.072 -3.177,1.232 -14.397,10.645 -25.506,17.669 -42.823,22.128 26.482,-33.521 63.793,-71.109 100.993,-91.823 24.671,-24.573 65.518,-48.856 98.288,-61.406 11.822,-7.097 47.263,-15.364 60.977,-19.697 z"
     id="path3" />
  <path
     fill="#5d8e47"
     d="m 490.04209,173.52125 c 15.361,1.646 28.552,3.213 43.832,6.031 3.766,3.603 8.169,7.518 11.357,11.559 2.776,-0.135 9.215,-2.808 12.142,-3.889 1.271,0.555 4.127,1.361 4.167,2.412 0.57,12.605 9.36,12.381 24.12,14.788 12.6,2.057 25.26,3.624 37.98,4.697 16.8,1.496 50.3,2.406 64.14,9.405 3.38,-4.471 6.09,-9.261 11.79,-10.062 16.21,3.718 4,33.091 10.92,44.662 12.85,21.47 35.7,33.183 44.77,58.539 1.71,4.729 11.82,25.663 13.64,26.772 l 1.71,-0.411 c 2.1,4.345 6.37,13.036 4.83,17.418 l -2.49,-0.007 c -10.1,-5.706 -21.07,-26.653 -27.15,-36.954 -2.75,-3.34 -6.3,-6.591 -9.42,-9.637 -12.06,-13.834 -36.28,-21.204 -50.21,-32.967 -10.36,-8.752 -11.28,-22.457 -19.22,-32.28 -2.56,-3.165 -12.93,-9.725 -16.56,-12.551 -10.97,-8.553 -30.32,-6.62 -44.54,-7.109 -17.36,-0.596 -36.66,-0.893 -54.148,0.112 -23.055,1.326 -46.193,6.445 -69.011,9.92 -20.211,3.078 -38.134,5.352 -58.246,9.497 -11.803,1.187 -24.49,3.874 -35.967,6.855 -45.947,14.182 -84.883,32.123 -112.694,72.766 -2.129,0.431 -1.608,0.072 -3.177,1.232 -14.397,10.645 -25.506,17.669 -42.823,22.128 26.482,-33.521 63.793,-71.109 100.993,-91.823 24.671,-24.573 65.518,-48.856 98.288,-61.406 11.822,-7.097 47.263,-15.364 60.977,-19.697 z"
     id="path4" />
  <path
     fill="#d4231e"
     d="m 490.04209,173.52125 c 15.361,1.646 28.552,3.213 43.832,6.031 3.766,3.603 8.169,7.518 11.357,11.559 -10.627,3.647 -19.377,5.686 -30.346,8.101 -38.614,8.503 -74.616,26.736 -113.96,33.26 5.257,-9.69 27.383,-33.154 28.14,-39.254 11.822,-7.097 47.263,-15.364 60.977,-19.697 z"
     id="path5" />
  <path
     fill="#a01611"
     d="m 330.77709,254.62425 c 24.671,-24.573 65.518,-48.856 98.288,-61.406 -0.757,6.1 -22.883,29.564 -28.14,39.254 -7.837,3.062 -66.4,22.204 -70.148,22.152 z"
     id="path6" />
  <path
     fill="#d4231e"
     d="m 424.44509,243.46625 0.931,1.063 c -4.149,4.746 -14.31,11.06 -19.738,15.207 -14.706,11.235 -27.885,20.246 -40.916,33.483 7.258,-14.655 15.185,-28.97 23.756,-42.898 11.477,-2.981 24.164,-5.668 35.967,-6.855 z"
     id="path7" />
  <path
     fill="#d4231e"
     d="m 735.91009,338.49325 c -1.14,-5.113 -1.62,-25.265 0.47,-29.649 3.12,3.046 6.67,6.297 9.42,9.637 -9.43,8.151 -10.07,7.339 -9.89,20.012 z"
     id="path8" />
  <path
     fill="#e06962"
     d="m 764.39009,311.50225 c 6.58,-4.543 11.84,-7.627 19.03,-11.136 89.43,-43.636 221.65001,-35.539 282.64001,52.642 30.55,44.323 41.95,99.081 31.64,151.916 -0.97,5.26 -6.44,27.36 -11.9,27.74 -20.85,1.42 -42.12,0.32 -63.48,0.96 -38.81001,1.16 -83.02001,18.73 -120.36001,19.52 -16.13,0.36 -32.09,-3.28 -46.48,-10.58 -39.33,-19.78 -131.12,-114.321 -144.31,-154.476 -2.32,-7.064 -4.25,-16.073 -2.57,-23.379 5.69,8.289 10.93,16.88 15.7,25.736 3.79,7.004 13.33,27.489 17.98,32.099 3.24,0.579 3.1,0.372 6.27,-0.782 4.51,-7.072 -12.41,-66.025 -12.64,-83.269 -0.18,-12.673 0.46,-11.861 9.89,-20.012 6.08,10.301 17.05,31.248 27.15,36.954 l 2.49,0.007 c 1.54,-4.382 -2.73,-13.073 -4.83,-17.418 -2.47,-9.331 -4.39,-16.985 -6.22,-26.522 z"
     id="path9" />
  <path
     fill="#87140e"
     d="m 840.02009,917.78425 c 5.99,-8.43 17.49,-18.36 24.92,-25.52 25.05,-24.16 48.86,-34.52 82.34,-41.66 24.78,-5.28 57.46001,-14.23 79.35001,-26.55 25.45,-14.32 49.97,-38.28 72.7,-56.85 8.95,-7.46 27.17,-23.57 37.24,-28.21 -42.26,118.01 -108.5,218.73 -224.83001,272.60995 -40.81,18.9 -108.89,38.05 -153.43,38.46 -3.33,-0.08 -4.33,0.01 -7.63,-0.92 -0.58,-5.32 7.7,-16.25 10.46,-21.3 22.16,-40.57995 50.3,-74.24995 78.88,-110.05995 z"
     id="path10" />
  <path
     fill="#5d8e47"
     d="m 784.98009,145.40025 c 18.41,-3.489 41.59,-20.343 57.65,-30.319 4.64,-2.884 16.03,-13.314 20.94,-10.263 -0.42,5.435 -2.85,10.104 -4.44,15.173 -8.04,25.62 -19.95,34.717 -42,47.732 23.14,1.963 55.77,5.59 78.09,12.579 17.18,3.217 34.27,7.255 51.46,10.388 48.67,8.871 94.60001,35.547 135.63001,62.184 7.59,4.927 28.66,26.936 26.9,35.947 l -1.68,0.952 c -4.79,-1.328 -27.08,-17.781 -33.8,-21.887 -13.4,-8.117 -27.59,-14.836 -42.36,-20.052 -20.5,-9.428 -50.32001,-22.902 -72.62001,-23.029 -25.9,-1.866 -55.21,0.072 -81.66,-1.04 -35.75,-1.504 -76.42,-6.271 -112.17,-3.109 -10.34,0.862 -17.18,1.701 -25.67,8.23 -1.02,-4.796 -0.41,-10.142 -0.16,-15.124 15.41,-3.745 52.22,-2.165 59.4,-9.958 0.19,-2.309 0.25,-3.194 0.78,-5.433 l 4.4,0.097 0.56,-0.621 c -12.95,-6.425 -46.84,-6.826 -49.43,-21.396 2.85,-12.216 37.04,-13.46 35.5,-27.853 -2.3,-2.457 -2.08,-2.379 -5.32,-3.198 z"
     id="path11" />
  <path
     fill="#d4231e"
     d="m 817.13009,167.72325 c 23.14,1.963 55.77,5.59 78.09,12.579 -2.77,1.647 -17.66,0.689 -21.99,0.544 -27.3,-0.909 -54.22,1.745 -81.45,2.807 -2.54,0.099 -3.52,-0.63 -5.17,-2.25 2.18,-2.191 25.99,-11.678 30.52,-13.68 z"
     id="path12" />
  <path
     fill="#a01611"
     d="m 764.92009,220.65625 c 35.75,-3.162 76.42,1.605 112.17,3.109 26.45,1.112 55.76,-0.826 81.66,1.04 3.69,4.146 17.59,11.089 22.76,14.741 23.41001,16.546 45.59001,36.796 61.03001,60.961 -19.66,-8.683 -39.24,-26.59 -58.97001,-33.763 -49.63,-18.04 -104.21,-27.228 -156.04,-36.782 -20.43,-3.767 -42.29,-8.846 -62.61,-9.306 z"
     id="path13" />
  <path
     fill="#416c34"
     d="m 21.586087,636.06425 c -0.847,2.91 -0.98,2.84 -2.781,5.34 -1.458,0.37 -1.927,0.85 -3.355,0.04 -5.443,-3.07 -8.9209998,-12.64 -10.8859998,-18.44 -16.0620002,-47.44 14.3039998,-233.903 28.8179998,-282.119 5.248,-17.432 12.503,-34.359 19.354,-51.216 9.623,-23.678 19.424,-47.558 31.001,-70.36 30.744003,-60.55 81.435003,-88.092 136.507003,-121.910002 19.09,-11.723 37.966,-24.152 57.641,-34.872 29.391,-16.014 62.976,-29.93 94.769,-40.381 52.641,-17.3030003 109.175,-21.76800033 164.22,-22.06700033 15.598,-0.085 31.636,-0.444 47.126,1.56800003 15.98,2.074 31.06,7.307 46.74,10.6380003 13.56,2.879 30.28,3.757 42.59,10.354 14.74,7.904 18.78,31.691 23.61,46.453 4.46,10.443 5.92,15.415 8.87,25.571 3.41,11.745002 9.71,51.594002 16.08,59.490002 14.97,-4.622 45.65,-6.187 63.09,-8.753 3.24,0.819 3.02,0.741 5.32,3.198 1.54,14.393 -32.65,15.637 -35.5,27.853 2.59,14.57 36.48,14.971 49.43,21.396 l -0.56,0.621 -4.4,-0.097 c -0.53,2.239 -0.59,3.124 -0.78,5.433 -7.18,7.793 -43.99,6.213 -59.4,9.958 -0.25,4.982 -0.86,10.328 0.16,15.124 -2.33,3.909 -3.68,6.273 -2.16,11.012 8.52,26.513 24.14,43.008 27.3,71.604 1.83,9.537 3.75,17.191 6.22,26.522 l -1.71,0.411 c -1.82,-1.109 -11.93,-22.043 -13.64,-26.772 -9.07,-25.356 -31.92,-37.069 -44.77,-58.539 -6.92,-11.571 5.29,-40.944 -10.92,-44.662 -5.7,0.801 -8.41,5.591 -11.79,10.062 -13.84,-6.999 -47.34,-7.909 -64.14,-9.405 -12.72,-1.073 -25.38,-2.64 -37.98,-4.697 -14.76,-2.407 -23.55,-2.183 -24.12,-14.788 -0.04,-1.051 -2.896,-1.857 -4.167,-2.412 -2.927,1.081 -9.366,3.754 -12.142,3.889 -3.188,-4.041 -7.591,-7.956 -11.357,-11.559 -15.28,-2.818 -28.471,-4.385 -43.832,-6.031 -32.877,-7.699 -51.656,-26.082 -60.343,-60.133 -0.552,-2.165 0.075,-2.716 1.31,-4.13 9.179,0.022 37.074,21.606 46.957,26.326 7.881,3.763 13.945,6.44 22.702,8.775 22.141,5.904 45.03,1.711 67.832,2.226 25.34,0.572 46.53,4.396 70.65,11.051 1.48,-15.619 3.51,-48.787 -6.31,-62.501002 -38.71,-54.046 -128.246,-37.124 -185.299,-32.982 -26.446,1.92 -56.532,14.799 -78.914,28.235 -29.586,17.383002 -59.529,34.150002 -89.811,50.291002 -15.983,8.65 -34.609,17.675 -49.495,27.703 -13.718,9.241 -27.637,24.102 -40.189,35.152 -24.795,22.013 -45.79,46.708 -63.323,74.847 -6.006,9.638 -14.638,22.419 -18.578,32.966 -22.191003,59.409 -46.820003,118.516 -63.444003,179.777 -3.856,14.21 -5.21,31.31 -7.107,46.05 l -7.03,53.01 c -1.623,13.08 -3.564,34.02 -8.064,45.88 z"
     id="path14" />
  <path
     fill="#5d8e47"
     d="m 21.586087,636.06425 c -0.847,2.91 -0.98,2.84 -2.781,5.34 -1.458,0.37 -1.927,0.85 -3.355,0.04 -5.443,-3.07 -8.9209998,-12.64 -10.8859998,-18.44 -16.0620002,-47.44 14.3039998,-233.903 28.8179998,-282.119 5.248,-17.432 12.503,-34.359 19.354,-51.216 9.623,-23.678 19.424,-47.558 31.001,-70.36 30.744003,-60.55 81.435003,-88.092 136.507003,-121.910002 19.09,-11.723 37.966,-24.152 57.641,-34.872 29.391,-16.014 62.976,-29.93 94.769,-40.381 52.641,-17.3030003 109.175,-21.76800033 164.22,-22.06700033 15.598,-0.085 31.636,-0.444 47.126,1.56800003 15.98,2.074 31.06,7.307 46.74,10.6380003 13.56,2.879 30.28,3.757 42.59,10.354 14.74,7.904 18.78,31.691 23.61,46.453 -4.17,1.07 -3.11,0.641 -7.85,-0.6 l -2.36,-0.22 -1.97,-4.753 c -12.22,11.349 -26.54,-5.992 -36.94,-13.056 -5.63,-3.821 -11.79,-10.416 -14.76,-16.545 -74.726,-23.062 -173.004,-18.451 -248.456,2.926 -24.321,6.89 -47.57,26.109 -69.548,38.104 -30.954,17.917 -64.201,35.158002 -93.371,55.728002 -80.42,57.202 -139.591003,139.467 -168.244003,233.905 -5.991,20.021 -9.756,41.162 -15.003,61.432 -5.764,22.265 -15.448,46.681 -17.842,69.381 -2.604,24.69 -0.539,50.73 -1.88,75.78 -0.842,15.72 -3.773,47.71 0.032,62.41 1.396,1.46 1.173,1.43 2.838,2.48 z"
     id="path15" />
  <path
     fill="#77a35a"
     d="m 633.06009,33.918248 c -0.04,-3.789 -0.37,-4.788 1.83,-7.886 16.41,-11.331 51.96,14.52 49.87,37.487 -12.22,11.349 -26.54,-5.992 -36.94,-13.056 -5.63,-3.821 -11.79,-10.416 -14.76,-16.545 z"
     id="path16" />
  <path
     fill="#25481f"
     d="m 368.62709,90.388248 c -5.01,-4.52 -8.154,-6.839 -9.869,-13.297 0.356,-3.782 2.024,-6.152 4.903,-8.484 28.64,-23.198 154.253,-39.378 189.846,-34.701 28.973,3.806 74.713,25.689 92.303,49.253 12.36,16.566 12.46,66.308002 12.6,87.345002 0.03,6.226 0.88,13.714 -0.42,19.715 -0.38,1.783 -1.4,4.082 -2.94,5.101 -2.87,1.898 -6.3,1.334 -9.43,0.46 -6.25,-1.75 -12.16,-4.426 -18.49,-6.01 5.06,-13.156 9.13,-17.613 12.02,-32.134 1.48,-15.619 3.51,-48.787 -6.31,-62.501002 -38.71,-54.046 -128.246,-37.124 -185.299,-32.982 -26.446,1.92 -56.532,14.799 -78.914,28.235 z"
     id="path17" />
  <path
     fill="#5d8e47"
     d="m 696.94009,69.092248 c 4.46,10.443 5.92,15.415 8.87,25.571 3.41,11.745002 9.71,51.594002 16.08,59.490002 0.36,4.117 8.48,19.722 10.9,25.511 -10.47,5.768 -11.95,6.404 -23.81,7.062 -8.75,-30.532 -15.93,-62.508 -26.41,-92.856002 -3.25,-9.402 -3.58,-20.219 6.52,-25.378 4.74,1.241 3.68,1.67 7.85,0.6 z"
     id="path18" />
  <path
     fill="#a01611"
     d="m 533.87409,179.55225 c 7.348,0.848 16.299,1.308 22.527,5.2 0.469,0.97 0.879,1.496 0.972,2.47 -2.927,1.081 -9.366,3.754 -12.142,3.889 -3.188,-4.041 -7.591,-7.956 -11.357,-11.559 z"
     id="path19"
     inkscape:label="path19" />
</svg>
