<?xml version="1.0" encoding="UTF-8" standalone="no"?>
<svg
   version="1.1"
   style="display:block"
   viewBox="0 0 1166.7201 1053.2792"
   width="583.36005"
   height="526.63959"
   preserveAspectRatio="none"
   id="svg19"
   sodipodi:docname="tomato-three.svg"
   inkscape:version="1.4.2 (ebf0e940, 2025-05-08)"
   xmlns:inkscape="http://www.inkscape.org/namespaces/inkscape"
   xmlns:sodipodi="http://sodipodi.sourceforge.net/DTD/sodipodi-0.dtd"
   xmlns="http://www.w3.org/2000/svg"
   xmlns:svg="http://www.w3.org/2000/svg">
  <defs
     id="defs19" />
  <sodipodi:namedview
     id="namedview19"
     pagecolor="#ffffff"
     bordercolor="#666666"
     borderopacity="1.0"
     inkscape:showpageshadow="2"
     inkscape:pageopacity="0.0"
     inkscape:pagecheckerboard="0"
     inkscape:deskcolor="#d1d1d1"
     inkscape:zoom="0.60200158"
     inkscape:cx="273.2551"
     inkscape:cy="246.67709"
     inkscape:window-width="1496"
     inkscape:window-height="934"
     inkscape:window-x="53"
     inkscape:window-y="104"
     inkscape:window-maximized="0"
     inkscape:current-layer="svg19" />
  <path
     fill="#cccccb"
     d="m 320.61584,887.08556 c 85.213,77.3 176.129,115.90004 291.684,117.16004 16.78,0.18 73.77,3.03 88.34,-1.59 72.86,-2.82 160.86,-32.51004 219.45,-75.97004 13.42,-9.96 26.31996,-21.54 38.69996,-32.78 12.44,4.92 38.09,8.64 53.27,12.27 20.12,4.8 111.78,28.82 97.07,60.28 -15.83,33.86004 -99.01,49.73004 -134.75,56.98004 -59.65996,12.08 -125.36996,18.2 -186.97996,22.33 -128.98,8.78 -258.44,7.47 -387.215,-3.93 -75.082,-6.55 -151.715,-15.52 -223.288,-40.64 -28.626,-10.04004 -81.584,-37.59004 -31.711,-66.37004 51.233,-29.56 117.121,-35.81 174.064,-47.03 0.455,-0.24 0.911,-0.47 1.366,-0.71 z"
     id="path19"
     style="display:inline" />
  <path
     fill="#d3221e"
     d="m 788.28984,144.63256 c 19.67,-6.675 29.98,-13.537 47.26,-24.945 9.4,-6.202 19.44,-13.468 30.01,-16.867 -8.96,34.589 -16.21,46.474 -46.68,64.986 19.71,2.206 56.46,5.631 74.18,11.578 23.11,4.785 57.52,10.575 79.3,16.863 31.82996,9.19 134.36996,57.174 137.30996,91.701 l -0.84,1.524 c -4.73,-1.073 -18.85,-10.514 -23.59,-14.034 -10.01,-7.447 -38.26,-23.557 -50.33,-25.697 14.33,13.412 32.58,28.328 44.06,43.937 96.63,131.369 107.11,296.027 57.68,447.307 -24.57,75.48 -66.28,144.25 -121.86,200.92 -12.38,11.24 -25.27996,22.82 -38.69996,32.78 -58.59,43.46004 -146.59,73.15004 -219.45,75.97004 -14.57,4.62 -71.56,1.77 -88.34,1.59 -115.555,-1.26 -206.471,-39.86 -291.684,-117.16004 -63.671,-63.36 -103.377,-122.59 -132.647,-207.9 -49.405,-143.99 -35.305,-267.582 30.709,-401.648 -3.515,0.803 -22.63,13.551 -28.537,16.082 -6.789,2.909 -8.543,3.495 -16.253,5.588 26.961,-37.299 64.401,-69.868 103.191,-94.311 27.571,-24.916 59.357,-44.725 93.871,-58.499 19.246,-10.703 41.839,-14.697 63.205,-21.209 13.824,1.789 30.292,3.51 43.66,6.82 5.923,4.132 8.607,5.737 13.196,11.543 5.239,-1.04 7.968,-2.149 12.924,-3.965 2.805,2.956 3.725,7.352 5.015,11.34 l 1.34,0.52 c 23.28,8.841 71.66,9.873 97.55,12.898 8.54,0.997 16.54,3.204 24.9,5.148 6.46,-4.662 5.75,-8.614 13.13,-8.684 13.56,7.042 3.15,29.094 8.55,40.934 9.17,20.068 30.39,31.726 40.95,51.024 4.18,7.545 10.71,30.483 16.03,34.189 1.34,-0.104 1.94,0.014 3.1,-0.48 -2.06,-7.101 -4.89,-16.669 -5.39,-23.901 -1.97,-10.739 -3.23,-14.528 -6.85,-24.597 -5.63,-15.673 -22.58,-39.279 -19.65,-55.178 l 1.01,-17.423 c 7.55,-0.72 51.95,-4.234 56.7,-7.674 1.71,-2.885 2.59,-3.985 4.64,-6.522 l -0.34,-1.663 c -6.18,-3.131 -45.47,-9.047 -45.97,-19.008 -0.79,-16.017 41.07,-13.283 33.64,-33.877 z"
     id="path2" />
  <path
     fill="#a01711"
     d="m 490.15484,173.18856 c 13.824,1.789 30.292,3.51 43.66,6.82 5.923,4.132 8.607,5.737 13.196,11.543 5.239,-1.04 7.968,-2.149 12.924,-3.965 2.805,2.956 3.725,7.352 5.015,11.34 l 1.34,0.52 c 23.28,8.841 71.66,9.873 97.55,12.898 8.54,0.997 16.54,3.204 24.9,5.148 6.46,-4.662 5.75,-8.614 13.13,-8.684 13.56,7.042 3.15,29.094 8.55,40.934 9.17,20.068 30.39,31.726 40.95,51.024 4.18,7.545 10.71,30.483 16.03,34.189 1.34,-0.104 1.94,0.014 3.1,-0.48 3.21,7.492 5.5,15.518 7.56,23.382 -16.36,-11.75 -20.86,-21.53 -31.35,-38.555 -4.54,3.375 -5.38,3.81 -8.68,8.172 l -0.97,1.269 c -0.19,0.261 -0.38,0.522 -0.57,0.783 0.41,19.398 4.41,35.808 8.19,54.618 1.64,8.208 7.08,30.68 4.14,37.651 -3.54,2.368 -7.21,-0.864 -9.08,-3.913 -10.73,-17.525 -18.38,-35.899 -30.28,-52.868 -7.15,-13.47 -16.05,-29.31 -22.2,-43.026 -12.78,-28.464 -20.91,-65.28 -42.58,-88.977 -28.36,0.782 -58.23,-0.604 -85.894,0.485 -37.191,1.464 -81.151,19.391 -115.104,34.16 -24.679,11.275 -57.21,30.393 -82.501,37.216 -8.769,16.592 -14.623,34.546 -20.208,52.386 -59.098,188.797 43.346,414.707 216.224,505.737 83.903,44.18 189.773,56.31 283.543,55.21 l -0.77,1.19 c -9.56,14.6 -26.08,32.51 -36.39,46.6 -8.67,11.85 -51.24,70.61004 -48.92,82.76004 l 1.98,1.9 c -14.57,4.62 -71.56,1.77 -88.34,1.59 -115.555,-1.26 -206.471,-39.86 -291.684,-117.16004 -63.671,-63.36 -103.377,-122.59 -132.647,-207.9 -49.405,-143.99 -35.305,-267.582 30.709,-401.648 -3.515,0.803 -22.63,13.551 -28.537,16.082 -6.789,2.909 -8.543,3.495 -16.253,5.588 26.961,-37.299 64.401,-69.868 103.191,-94.311 27.571,-24.916 59.357,-44.725 93.871,-58.499 19.246,-10.703 41.839,-14.697 63.205,-21.209 z"
     id="path3" />
  <path
     fill="#5f8d48"
     d="m 490.15484,173.18856 c 13.824,1.789 30.292,3.51 43.66,6.82 5.923,4.132 8.607,5.737 13.196,11.543 5.239,-1.04 7.968,-2.149 12.924,-3.965 2.805,2.956 3.725,7.352 5.015,11.34 l 1.34,0.52 c 23.28,8.841 71.66,9.873 97.55,12.898 8.54,0.997 16.54,3.204 24.9,5.148 6.46,-4.662 5.75,-8.614 13.13,-8.684 13.56,7.042 3.15,29.094 8.55,40.934 9.17,20.068 30.39,31.726 40.95,51.024 4.18,7.545 10.71,30.483 16.03,34.189 1.34,-0.104 1.94,0.014 3.1,-0.48 3.21,7.492 5.5,15.518 7.56,23.382 -16.36,-11.75 -20.86,-21.53 -31.35,-38.555 -2.46,-3.686 -6.3,-7.082 -9.52,-10.234 -12.86,-14.437 -37.5,-21.463 -50.97,-34.136 -12.43,-12.849 -11.54,-28.762 -27.82,-39.26 -13.9,-9.975 -24.71,-10.865 -41.03,-11.8 -44.71,-2.561 -81.746,1.398 -125.682,8.735 l -67.624,11.117 c -8.74,0.635 -26.727,3.062 -34.567,6.681 -45.011,13.236 -88.763,34.436 -114.819,75.132 -3.515,0.803 -22.63,13.551 -28.537,16.082 -6.789,2.909 -8.543,3.495 -16.253,5.588 26.961,-37.299 64.401,-69.868 103.191,-94.311 27.571,-24.916 59.357,-44.725 93.871,-58.499 19.246,-10.703 41.839,-14.697 63.205,-21.209 z"
     id="path4" />
  <path
     fill="#d3221e"
     d="m 490.15484,173.18856 c 13.824,1.789 30.292,3.51 43.66,6.82 5.923,4.132 8.607,5.737 13.196,11.543 -26.857,5.441 -55.806,14.832 -81.837,23.361 -19.122,6.266 -43.676,15.069 -63.392,17.603 5.188,-7.625 26.385,-30.657 25.168,-38.118 19.246,-10.703 41.839,-14.697 63.205,-21.209 z"
     id="path5" />
  <path
     fill="#a01711"
     d="m 426.94984,194.39756 c 1.217,7.461 -19.98,30.493 -25.168,38.118 -9.553,3.255 -62.626,22.6 -68.703,20.381 27.571,-24.916 59.357,-44.725 93.871,-58.499 z"
     id="path6" />
  <path
     fill="#d3221e"
     d="m 389.49684,250.40556 c 7.84,-3.619 25.827,-6.046 34.567,-6.681 l 0.41,2.146 c -2.72,3.072 -15.942,12.178 -19.959,15.197 -14.396,10.818 -26.139,19.552 -38.832,32.447 5.496,-12.674 16.157,-31.259 23.814,-43.109 z"
     id="path7" />
  <path
     fill="#d3221e"
     d="m 737.18984,309.06856 c 3.22,3.152 7.06,6.548 9.52,10.234 -4.54,3.375 -5.38,3.81 -8.68,8.172 l -0.97,1.269 c -0.19,0.261 -0.38,0.522 -0.57,0.783 -1.28,-7.153 -2.39,-13.913 0.7,-20.458 z"
     id="path8" />
  <path
     fill="#df6862"
     d="m 765.10984,310.57456 c 6.91,-1.575 17.43,-9.991 24.47,-12.977 66.32,-28.146 145.41,-32.675 211.08996,-0.55 44.96,21.994 74.32,58.024 90.54,104.888 12.98,36.115 15.85,92.79 -1.24,127.61 -0.41,0.85 -0.83,1.69 -1.27,2.53 -25.64,2.14 -63.2,-0.35 -85.28,3.15 -71.68996,11.36 -118.44996,40.25 -181.16996,-16.81 -34.66,-31.53 -103.75,-93.508 -113.14,-143.628 -0.47,-2.502 -0.02,-7.228 0.35,-9.773 11.9,16.969 19.55,35.343 30.28,52.868 1.87,3.049 5.54,6.281 9.08,3.913 2.94,-6.971 -2.5,-29.443 -4.14,-37.651 -3.78,-18.81 -7.78,-35.22 -8.19,-54.618 0.19,-0.261 0.38,-0.522 0.57,-0.783 l 0.97,-1.269 c 3.3,-4.362 4.14,-4.797 8.68,-8.172 10.49,17.025 14.99,26.805 31.35,38.555 -2.06,-7.864 -4.35,-15.89 -7.56,-23.382 -2.06,-7.101 -4.89,-16.669 -5.39,-23.901 z"
     id="path9" />
  <path
     fill="#87150e"
     d="m 840.73984,918.20556 c 1.26,-1.89 2.65,-3.68 4.15,-5.37 3.53,-3.97 8.93,-8.4 11.95,-12.11 47.31,-57.12 118.19,-44.35 178.42996,-81.22 19.73,-12.08 91.76,-77.94 101.38,-78.52 -24.57,75.48 -66.28,144.25 -121.86,200.92 -12.38,11.24 -25.27996,22.82 -38.69996,32.78 -58.59,43.46004 -146.59,73.15004 -219.45,75.97004 l -1.98,-1.9 c -2.32,-12.15 40.25,-70.91004 48.92,-82.76004 10.31,-14.09 26.83,-32 36.39,-46.6 z"
     id="path10" />
  <path
     fill="#5f8d48"
     d="m 788.28984,144.63256 c 19.67,-6.675 29.98,-13.537 47.26,-24.945 9.4,-6.202 19.44,-13.468 30.01,-16.867 -8.96,34.589 -16.21,46.474 -46.68,64.986 19.71,2.206 56.46,5.631 74.18,11.578 23.11,4.785 57.52,10.575 79.3,16.863 31.82996,9.19 134.36996,57.174 137.30996,91.701 l -0.84,1.524 c -4.73,-1.073 -18.85,-10.514 -23.59,-14.034 -10.01,-7.447 -38.26,-23.557 -50.33,-25.697 -20.25,-10.06 -52.83996,-23.834 -74.90996,-24.774 -10.1,-2.365 -60.23,-0.055 -74.55,-0.853 -39.89,-2.224 -83.76,-6.931 -123.48,-3.313 -10.47,1.406 -15.61,2.191 -23.36,9.998 l 1.01,-17.423 c 7.55,-0.72 51.95,-4.234 56.7,-7.674 1.71,-2.885 2.59,-3.985 4.64,-6.522 l -0.34,-1.663 c -6.18,-3.131 -45.47,-9.047 -45.97,-19.008 -0.79,-16.017 41.07,-13.283 33.64,-33.877 z"
     id="path11" />
  <path
     fill="#d3221e"
     d="m 818.87984,167.80656 c 19.71,2.206 56.46,5.631 74.18,11.578 -5.94,3.397 -65.37,-0.14 -77.2,2.778 -4,0.988 -25.49,1.239 -30.47,1.082 12.08,-6.966 20.69,-10.501 33.49,-15.438 z"
     id="path12" />
  <path
     fill="#a01711"
     d="m 761.96984,220.80156 c 39.72,-3.618 83.59,1.089 123.48,3.313 14.32,0.798 64.45,-1.512 74.55,0.853 6.81,5.772 18.03,11.797 25.8,17.302 18.78996,13.318 45.69996,38.062 56.71996,58.183 -14.75,-7.619 -39.8,-26.222 -51.89996,-30.928 -48.99,-19.053 -104.55,-29.136 -156.09,-38.612 -30.56,-5.618 -41.46,-9.808 -72.56,-10.111 z"
     id="path13" />
  <path
     fill="#426c34"
     d="m 21.435835,639.07556 c -0.69,1.71 -0.865,1.52 -2.242,2.98 -2.486,0.09 -3.441,-0.1 -5.28,-1.89 -13.31799961,-12.96 -14.03199961,-43.98 -13.90199961,-61.13 0.356,-47.11 6.73000001,-94.6 14.03699961,-141.079 5.264,-33.476 10.833,-67.618 20.807,-100.07 8.369,-27.227 20.062,-53.81 31.515,-79.858 15.254,-34.691 29.82,-65.715 57.384005,-92.604 27.729,-27.049 60.892,-45.366 93.401,-65.813 20.947,-13.176 41.74,-26.549 63.53,-38.317 96.208,-51.9550003 177.581,-63.0190003 285.474,-61.09000027 8.23,0.147 16.53,0.646 24.66,1.97299997 13.46,2.195 26.53,6.705 39.81,9.7240003 10.85,2.466 22.01,3.625 32.74,6.598 4.39,1.215 9.71,2.64 13.34,5.444 24.81,19.172 37.32,121.596 46.1,129.144 0.29,0.25 0.65,0.411 0.97,0.617 10.1,-2.155 20.31,-3.739 30.58,-4.745 9.95,-0.982 24.91,-1.823 33.93,-4.327 7.43,20.594 -34.43,17.86 -33.64,33.877 0.5,9.961 39.79,15.877 45.97,19.008 l 0.34,1.663 c -2.05,2.537 -2.93,3.637 -4.64,6.522 -4.75,3.44 -49.15,6.954 -56.7,7.674 l -1.01,17.423 c -2.93,15.899 14.02,39.505 19.65,55.178 3.62,10.069 4.88,13.858 6.85,24.597 0.5,7.232 3.33,16.8 5.39,23.901 -1.16,0.494 -1.76,0.376 -3.1,0.48 -5.32,-3.706 -11.85,-26.644 -16.03,-34.189 -10.56,-19.298 -31.78,-30.956 -40.95,-51.024 -5.4,-11.84 5.01,-33.892 -8.55,-40.934 -7.38,0.07 -6.67,4.022 -13.13,8.684 -8.36,-1.944 -16.36,-4.151 -24.9,-5.148 -25.89,-3.025 -74.27,-4.057 -97.55,-12.898 l -1.34,-0.52 c -1.29,-3.988 -2.21,-8.384 -5.015,-11.34 -4.956,1.816 -7.685,2.925 -12.924,3.965 -4.589,-5.806 -7.273,-7.411 -13.196,-11.543 -13.368,-3.31 -29.836,-5.031 -43.66,-6.82 -27.981,-7.87 -45.136,-18.345 -55.714,-47.644 -1.734,-4.802 -4.419,-10.363 -2.242,-15.246 7.985,-1.661 40.531,23.536 53.546,28.901 34.502,14.222 61.954,5.468 98.235,8.185 21.11,1.58 35.48,5.195 55.77,9.88 1.46,-19.162 4.41,-43.175 -5.82,-60.429 -10.72,-18.08 -32.43,-29.352 -52.12,-34.58 -35.337,-9.385 -125.473,-4.485 -160.363,5.16 -18.402,5.088 -36.04,13.851 -52.461,23.465 -25.813,15.156 -51.962,29.732 -78.427,43.717 -38.188,20.437 -60.436,30.913 -92.219,61.184 -29.716,28.303 -55.722,53.735 -76.475,90.098 -18.226,29.727 -27.519005,63.673 -40.672005,95.819 -12.962,35.479 -27.043,71.959 -36.329,108.607 -8.212,32.42 -9.197,68.63 -14.464,101.77 -2.513,15.81 -3.107,31.72 -8.964,47 z"
     id="path14" />
  <path
     fill="#5f8d48"
     d="m 21.435835,639.07556 c -0.69,1.71 -0.865,1.52 -2.242,2.98 -2.486,0.09 -3.441,-0.1 -5.28,-1.89 -13.31799961,-12.96 -14.03199961,-43.98 -13.90199961,-61.13 0.356,-47.11 6.73000001,-94.6 14.03699961,-141.079 5.264,-33.476 10.833,-67.618 20.807,-100.07 8.369,-27.227 20.062,-53.81 31.515,-79.858 15.254,-34.691 29.82,-65.715 57.384005,-92.604 27.729,-27.049 60.892,-45.366 93.401,-65.813 20.947,-13.176 41.74,-26.549 63.53,-38.317 96.208,-51.9550003 177.581,-63.0190003 285.474,-61.09000027 8.23,0.147 16.53,0.646 24.66,1.97299997 13.46,2.195 26.53,6.705 39.81,9.7240003 10.85,2.466 22.01,3.625 32.74,6.598 4.39,1.215 9.71,2.64 13.34,5.444 24.81,19.172 37.32,121.596 46.1,129.144 0.29,0.25 0.65,0.411 0.97,0.617 l -0.42,0.563 c -0.94,3.993 7.95,20.641 10.2,25.346 -9.21,4.579 -13.34,5.514 -23.14,7.732 -10.09,-34.145 -19.11,-68.772 -29.4,-102.858 -2.11,-6.962 10.44,-13.988 4.19,-19.757 -15.92,10.661 -43.48,-18.61 -51.82,-30.927 -65.85,-19.717 -131.842,-17.943 -199.015,-7.736 -55.412,8.419 -75.01,21.315 -121.37,50.83 -28.499,18.143 -60.735,32.775 -89.327,52.741 -81.037,57.222 -140.697005,139.816 -169.551005,234.731 -6.153,20.787 -10.15,41.887 -15.506,63.156 -4.686,18.208 -12.549,37.65 -15.495,56.11 -3.35,20.99 -3.464,46.78 -3.292,67.97 0.141,17.48 -5.888,74.22 1.602,87.47 z"
     id="path15" />
  <path
     fill="#78a359"
     d="m 633.38984,33.80356 c 0.53,-27.5420003 56.98,2.536 51.82,30.927 -15.92,10.661 -43.48,-18.61 -51.82,-30.927 z"
     id="path16" />
  <path
     fill="#284b21"
     d="m 368.98584,90.88056 c -6.957,-7.271 -15.782,-17.345 -1.504,-24.436 48.613,-24.145 109.983,-29.735 163.757,-33.536 39.511,-2.899 116.761,28.067 123.221,71.371 2.77,18.582 8.14,75.817 1.48,92.405 -11.62,-0.941 -16.91,-2.645 -27.91,-6.705 3.92,-9.329 10.28,-23.079 11.72,-32.715 1.46,-19.162 4.41,-43.175 -5.82,-60.429 -10.72,-18.08 -32.43,-29.352 -52.12,-34.58 -35.337,-9.385 -125.473,-4.485 -160.363,5.16 -18.402,5.088 -36.04,13.851 -52.461,23.465 z"
     id="path17" />
  <path
     fill="#87150e"
     d="m 533.81484,180.00856 c 8.817,0.501 19.447,1.04 26.12,7.578 -4.956,1.816 -7.685,2.925 -12.924,3.965 -4.589,-5.806 -7.273,-7.411 -13.196,-11.543 z"
     id="path18" />
</svg>
