<svg version="1.1" xmlns="http://www.w3.org/2000/svg" style="display: block;" viewBox="0 0 2048 2048" width="1024" height="1024" preserveAspectRatio="none">
<path transform="translate(0,0)" fill="rgb(255,255,255)" d="M 0 0 L 2048 0 L 2048 2048 L 0 2048 L 0 0 z"/>
<path transform="translate(0,0)" fill="rgb(212,35,30)" d="M 1224.84 685.446 C 1243.25 681.957 1266.43 665.103 1282.49 655.127 C 1287.13 652.243 1298.52 641.813 1303.43 644.864 C 1303.01 650.299 1300.58 654.968 1298.99 660.037 C 1290.95 685.657 1279.04 694.754 1256.99 707.769 C 1280.13 709.732 1312.76 713.359 1335.08 720.348 C 1352.26 723.565 1369.35 727.603 1386.54 730.736 C 1435.21 739.607 1481.14 766.283 1522.17 792.92 C 1529.76 797.847 1550.83 819.856 1549.07 828.867 L 1547.39 829.819 C 1542.6 828.491 1520.31 812.038 1513.59 807.932 C 1500.19 799.815 1486 793.096 1471.23 787.88 C 1487.22 800.841 1503.26 815.227 1516.36 831.347 C 1566.55 893.13 1594.5 982.308 1603.36 1060.22 C 1610.56 1123.58 1599.55 1219.28 1576.43 1279.04 C 1534.17 1397.05 1467.93 1497.77 1351.6 1551.65 C 1310.79 1570.55 1242.71 1589.7 1198.17 1590.11 C 1189.31 1592.03 1153.36 1592.99 1143.21 1592.97 C 1061.98 1592.84 985.994 1583.99 913.576 1545.23 C 799.032 1483.92 714.433 1373.38 677.554 1249.64 C 637.24 1114.37 649.21 987.048 715.644 863.133 C 713.515 863.564 714.036 863.205 712.467 864.365 C 698.07 875.01 686.961 882.034 669.644 886.493 C 696.126 852.972 733.437 815.384 770.637 794.67 C 795.308 770.097 836.155 745.814 868.925 733.264 C 880.747 726.167 916.188 717.9 929.902 713.567 C 945.263 715.213 958.454 716.78 973.734 719.598 C 977.5 723.201 981.903 727.116 985.091 731.157 C 987.867 731.022 994.306 728.349 997.233 727.268 C 998.504 727.823 1001.36 728.629 1001.4 729.68 C 1001.97 742.285 1010.76 742.061 1025.52 744.468 C 1038.12 746.525 1050.78 748.092 1063.5 749.165 C 1080.3 750.661 1113.8 751.571 1127.64 758.57 C 1131.02 754.099 1133.73 749.309 1139.43 748.508 C 1155.64 752.226 1143.43 781.599 1150.35 793.17 C 1163.2 814.64 1186.05 826.353 1195.12 851.709 C 1196.83 856.438 1206.94 877.372 1208.76 878.481 L 1210.47 878.07 C 1208 868.739 1206.08 861.085 1204.25 851.548 C 1201.09 822.952 1185.47 806.457 1176.95 779.944 C 1175.43 775.205 1176.78 772.841 1179.11 768.932 C 1178.09 764.136 1178.7 758.79 1178.95 753.808 C 1194.36 750.063 1231.17 751.643 1238.35 743.85 C 1238.54 741.541 1238.6 740.656 1239.13 738.417 L 1243.53 738.514 L 1244.09 737.893 C 1231.14 731.468 1197.25 731.067 1194.66 716.497 C 1197.51 704.281 1231.7 703.037 1230.16 688.644 C 1227.86 686.187 1228.08 686.265 1224.84 685.446 z"/>
<path transform="translate(0,0)" fill="rgb(160,22,17)" d="M 929.902 713.567 C 945.263 715.213 958.454 716.78 973.734 719.598 C 977.5 723.201 981.903 727.116 985.091 731.157 C 987.867 731.022 994.306 728.349 997.233 727.268 C 998.504 727.823 1001.36 728.629 1001.4 729.68 C 1001.97 742.285 1010.76 742.061 1025.52 744.468 C 1038.12 746.525 1050.78 748.092 1063.5 749.165 C 1080.3 750.661 1113.8 751.571 1127.64 758.57 C 1131.02 754.099 1133.73 749.309 1139.43 748.508 C 1155.64 752.226 1143.43 781.599 1150.35 793.17 C 1163.2 814.64 1186.05 826.353 1195.12 851.709 C 1196.83 856.438 1206.94 877.372 1208.76 878.481 L 1210.47 878.07 C 1212.57 882.415 1216.84 891.106 1215.3 895.488 L 1212.81 895.481 C 1202.71 889.775 1191.74 868.828 1185.66 858.527 C 1176.23 866.678 1175.59 865.866 1175.77 878.539 C 1176 895.783 1192.92 954.736 1188.41 961.808 C 1185.24 962.962 1185.38 963.169 1182.14 962.59 C 1177.49 957.98 1167.95 937.495 1164.16 930.491 C 1159.39 921.635 1154.15 913.044 1148.46 904.755 C 1141.72 890.596 1131.88 875.151 1125.88 861.335 C 1114.25 834.537 1104.55 794.363 1083.65 772.833 C 1070.53 773.072 1058.15 773.996 1044.91 773.891 C 1028.28 773.759 1010.13 772.268 993.659 773.983 C 960.772 777.408 919.746 790.999 889.682 804.582 C 861.324 817.394 829.121 836.65 799.686 845.686 C 789.263 866.473 781.629 890.7 775.581 913.132 C 725.115 1100.29 832.21 1321.63 1004.03 1407.17 C 1070.61 1440.32 1152.63 1453.01 1226.08 1458.01 C 1242.04 1458.97 1263.43 1458.1 1279.88 1457.83 C 1251.3 1493.64 1223.16 1527.31 1201 1567.89 C 1198.24 1572.94 1189.96 1583.87 1190.54 1589.19 C 1193.84 1590.12 1194.84 1590.03 1198.17 1590.11 C 1189.31 1592.03 1153.36 1592.99 1143.21 1592.97 C 1061.98 1592.84 985.994 1583.99 913.576 1545.23 C 799.032 1483.92 714.433 1373.38 677.554 1249.64 C 637.24 1114.37 649.21 987.048 715.644 863.133 C 713.515 863.564 714.036 863.205 712.467 864.365 C 698.07 875.01 686.961 882.034 669.644 886.493 C 696.126 852.972 733.437 815.384 770.637 794.67 C 795.308 770.097 836.155 745.814 868.925 733.264 C 880.747 726.167 916.188 717.9 929.902 713.567 z"/>
<path transform="translate(0,0)" fill="rgb(93,142,71)" d="M 929.902 713.567 C 945.263 715.213 958.454 716.78 973.734 719.598 C 977.5 723.201 981.903 727.116 985.091 731.157 C 987.867 731.022 994.306 728.349 997.233 727.268 C 998.504 727.823 1001.36 728.629 1001.4 729.68 C 1001.97 742.285 1010.76 742.061 1025.52 744.468 C 1038.12 746.525 1050.78 748.092 1063.5 749.165 C 1080.3 750.661 1113.8 751.571 1127.64 758.57 C 1131.02 754.099 1133.73 749.309 1139.43 748.508 C 1155.64 752.226 1143.43 781.599 1150.35 793.17 C 1163.2 814.64 1186.05 826.353 1195.12 851.709 C 1196.83 856.438 1206.94 877.372 1208.76 878.481 L 1210.47 878.07 C 1212.57 882.415 1216.84 891.106 1215.3 895.488 L 1212.81 895.481 C 1202.71 889.775 1191.74 868.828 1185.66 858.527 C 1182.91 855.187 1179.36 851.936 1176.24 848.89 C 1164.18 835.056 1139.96 827.686 1126.03 815.923 C 1115.67 807.171 1114.75 793.466 1106.81 783.643 C 1104.25 780.478 1093.88 773.918 1090.25 771.092 C 1079.28 762.539 1059.93 764.472 1045.71 763.983 C 1028.35 763.387 1009.05 763.09 991.562 764.095 C 968.507 765.421 945.369 770.54 922.551 774.015 C 902.34 777.093 884.417 779.367 864.305 783.512 C 852.502 784.699 839.815 787.386 828.338 790.367 C 782.391 804.549 743.455 822.49 715.644 863.133 C 713.515 863.564 714.036 863.205 712.467 864.365 C 698.07 875.01 686.961 882.034 669.644 886.493 C 696.126 852.972 733.437 815.384 770.637 794.67 C 795.308 770.097 836.155 745.814 868.925 733.264 C 880.747 726.167 916.188 717.9 929.902 713.567 z"/>
<path transform="translate(0,0)" fill="rgb(212,35,30)" d="M 929.902 713.567 C 945.263 715.213 958.454 716.78 973.734 719.598 C 977.5 723.201 981.903 727.116 985.091 731.157 C 974.464 734.804 965.714 736.843 954.745 739.258 C 916.131 747.761 880.129 765.994 840.785 772.518 C 846.042 762.828 868.168 739.364 868.925 733.264 C 880.747 726.167 916.188 717.9 929.902 713.567 z"/>
<path transform="translate(0,0)" fill="rgb(160,22,17)" d="M 770.637 794.67 C 795.308 770.097 836.155 745.814 868.925 733.264 C 868.168 739.364 846.042 762.828 840.785 772.518 C 832.948 775.58 774.385 794.722 770.637 794.67 z"/>
<path transform="translate(0,0)" fill="rgb(212,35,30)" d="M 864.305 783.512 L 865.236 784.575 C 861.087 789.321 850.926 795.635 845.498 799.782 C 830.792 811.017 817.613 820.028 804.582 833.265 C 811.84 818.61 819.767 804.295 828.338 790.367 C 839.815 787.386 852.502 784.699 864.305 783.512 z"/>
<path transform="translate(0,0)" fill="rgb(212,35,30)" d="M 1175.77 878.539 C 1174.63 873.426 1174.15 853.274 1176.24 848.89 C 1179.36 851.936 1182.91 855.187 1185.66 858.527 C 1176.23 866.678 1175.59 865.866 1175.77 878.539 z"/>
<path transform="translate(0,0)" fill="rgb(224,105,98)" d="M 1204.25 851.548 C 1210.83 847.005 1216.09 843.921 1223.28 840.412 C 1312.71 796.776 1444.93 804.873 1505.92 893.054 C 1536.47 937.377 1547.87 992.135 1537.56 1044.97 C 1536.59 1050.23 1531.12 1072.33 1525.66 1072.71 C 1504.81 1074.13 1483.54 1073.03 1462.18 1073.67 C 1423.37 1074.83 1379.16 1092.4 1341.82 1093.19 C 1325.69 1093.55 1309.73 1089.91 1295.34 1082.61 C 1256.01 1062.83 1164.22 968.289 1151.03 928.134 C 1148.71 921.07 1146.78 912.061 1148.46 904.755 C 1154.15 913.044 1159.39 921.635 1164.16 930.491 C 1167.95 937.495 1177.49 957.98 1182.14 962.59 C 1185.38 963.169 1185.24 962.962 1188.41 961.808 C 1192.92 954.736 1176 895.783 1175.77 878.539 C 1175.59 865.866 1176.23 866.678 1185.66 858.527 C 1191.74 868.828 1202.71 889.775 1212.81 895.481 L 1215.3 895.488 C 1216.84 891.106 1212.57 882.415 1210.47 878.07 C 1208 868.739 1206.08 861.085 1204.25 851.548 z"/>
<path transform="translate(0,0)" fill="rgb(135,20,14)" d="M 1279.88 1457.83 C 1285.87 1449.4 1297.37 1439.47 1304.8 1432.31 C 1329.85 1408.15 1353.66 1397.79 1387.14 1390.65 C 1411.92 1385.37 1444.6 1376.42 1466.49 1364.1 C 1491.94 1349.78 1516.46 1325.82 1539.19 1307.25 C 1548.14 1299.79 1566.36 1283.68 1576.43 1279.04 C 1534.17 1397.05 1467.93 1497.77 1351.6 1551.65 C 1310.79 1570.55 1242.71 1589.7 1198.17 1590.11 C 1194.84 1590.03 1193.84 1590.12 1190.54 1589.19 C 1189.96 1583.87 1198.24 1572.94 1201 1567.89 C 1223.16 1527.31 1251.3 1493.64 1279.88 1457.83 z"/>
<path transform="translate(0,0)" fill="rgb(93,142,71)" d="M 1224.84 685.446 C 1243.25 681.957 1266.43 665.103 1282.49 655.127 C 1287.13 652.243 1298.52 641.813 1303.43 644.864 C 1303.01 650.299 1300.58 654.968 1298.99 660.037 C 1290.95 685.657 1279.04 694.754 1256.99 707.769 C 1280.13 709.732 1312.76 713.359 1335.08 720.348 C 1352.26 723.565 1369.35 727.603 1386.54 730.736 C 1435.21 739.607 1481.14 766.283 1522.17 792.92 C 1529.76 797.847 1550.83 819.856 1549.07 828.867 L 1547.39 829.819 C 1542.6 828.491 1520.31 812.038 1513.59 807.932 C 1500.19 799.815 1486 793.096 1471.23 787.88 C 1450.73 778.452 1420.91 764.978 1398.61 764.851 C 1372.71 762.985 1343.4 764.923 1316.95 763.811 C 1281.2 762.307 1240.53 757.54 1204.78 760.702 C 1194.44 761.564 1187.6 762.403 1179.11 768.932 C 1178.09 764.136 1178.7 758.79 1178.95 753.808 C 1194.36 750.063 1231.17 751.643 1238.35 743.85 C 1238.54 741.541 1238.6 740.656 1239.13 738.417 L 1243.53 738.514 L 1244.09 737.893 C 1231.14 731.468 1197.25 731.067 1194.66 716.497 C 1197.51 704.281 1231.7 703.037 1230.16 688.644 C 1227.86 686.187 1228.08 686.265 1224.84 685.446 z"/>
<path transform="translate(0,0)" fill="rgb(212,35,30)" d="M 1256.99 707.769 C 1280.13 709.732 1312.76 713.359 1335.08 720.348 C 1332.31 721.995 1317.42 721.037 1313.09 720.892 C 1285.79 719.983 1258.87 722.637 1231.64 723.699 C 1229.1 723.798 1228.12 723.069 1226.47 721.449 C 1228.65 719.258 1252.46 709.771 1256.99 707.769 z"/>
<path transform="translate(0,0)" fill="rgb(160,22,17)" d="M 1204.78 760.702 C 1240.53 757.54 1281.2 762.307 1316.95 763.811 C 1343.4 764.923 1372.71 762.985 1398.61 764.851 C 1402.3 768.997 1416.2 775.94 1421.37 779.592 C 1444.78 796.138 1466.96 816.388 1482.4 840.553 C 1462.74 831.87 1443.16 813.963 1423.43 806.79 C 1373.8 788.75 1319.22 779.562 1267.39 770.008 C 1246.96 766.241 1225.1 761.162 1204.78 760.702 z"/>
<path transform="translate(0,0)" fill="rgb(65,108,52)" d="M 461.446 1176.11 C 460.599 1179.02 460.466 1178.95 458.665 1181.45 C 457.207 1181.82 456.738 1182.3 455.31 1181.49 C 449.867 1178.42 446.389 1168.85 444.424 1163.05 C 428.362 1115.61 458.728 929.147 473.242 880.931 C 478.49 863.499 485.745 846.572 492.596 829.715 C 502.219 806.037 512.02 782.157 523.597 759.355 C 554.341 698.805 605.032 671.263 660.104 637.445 C 679.194 625.722 698.07 613.293 717.745 602.573 C 747.136 586.559 780.721 572.643 812.514 562.192 C 865.155 544.889 921.689 540.424 976.734 540.125 C 992.332 540.04 1008.37 539.681 1023.86 541.693 C 1039.84 543.767 1054.92 549 1070.6 552.331 C 1084.16 555.21 1100.88 556.088 1113.19 562.685 C 1127.93 570.589 1131.97 594.376 1136.8 609.138 C 1141.26 619.581 1142.72 624.553 1145.67 634.709 C 1149.08 646.454 1155.38 686.303 1161.75 694.199 C 1176.72 689.577 1207.4 688.012 1224.84 685.446 C 1228.08 686.265 1227.86 686.187 1230.16 688.644 C 1231.7 703.037 1197.51 704.281 1194.66 716.497 C 1197.25 731.067 1231.14 731.468 1244.09 737.893 L 1243.53 738.514 L 1239.13 738.417 C 1238.6 740.656 1238.54 741.541 1238.35 743.85 C 1231.17 751.643 1194.36 750.063 1178.95 753.808 C 1178.7 758.79 1178.09 764.136 1179.11 768.932 C 1176.78 772.841 1175.43 775.205 1176.95 779.944 C 1185.47 806.457 1201.09 822.952 1204.25 851.548 C 1206.08 861.085 1208 868.739 1210.47 878.07 L 1208.76 878.481 C 1206.94 877.372 1196.83 856.438 1195.12 851.709 C 1186.05 826.353 1163.2 814.64 1150.35 793.17 C 1143.43 781.599 1155.64 752.226 1139.43 748.508 C 1133.73 749.309 1131.02 754.099 1127.64 758.57 C 1113.8 751.571 1080.3 750.661 1063.5 749.165 C 1050.78 748.092 1038.12 746.525 1025.52 744.468 C 1010.76 742.061 1001.97 742.285 1001.4 729.68 C 1001.36 728.629 998.504 727.823 997.233 727.268 C 994.306 728.349 987.867 731.022 985.091 731.157 C 981.903 727.116 977.5 723.201 973.734 719.598 C 958.454 716.78 945.263 715.213 929.902 713.567 C 897.025 705.868 878.246 687.485 869.559 653.434 C 869.007 651.269 869.634 650.718 870.869 649.304 C 880.048 649.326 907.943 670.91 917.826 675.63 C 925.707 679.393 931.771 682.07 940.528 684.405 C 962.669 690.309 985.558 686.116 1008.36 686.631 C 1033.7 687.203 1054.89 691.027 1079.01 697.682 C 1080.49 682.063 1082.52 648.895 1072.7 635.181 C 1033.99 581.135 944.454 598.057 887.401 602.199 C 860.955 604.119 830.869 616.998 808.487 630.434 C 778.901 647.817 748.958 664.584 718.676 680.725 C 702.693 689.375 684.067 698.4 669.181 708.428 C 655.463 717.669 641.544 732.53 628.992 743.58 C 604.197 765.593 583.202 790.288 565.669 818.427 C 559.663 828.065 551.031 840.846 547.091 851.393 C 524.9 910.802 500.271 969.909 483.647 1031.17 C 479.791 1045.38 478.437 1062.48 476.54 1077.22 L 469.51 1130.23 C 467.887 1143.31 465.946 1164.25 461.446 1176.11 z"/>
<path transform="translate(0,0)" fill="rgb(93,142,71)" d="M 461.446 1176.11 C 460.599 1179.02 460.466 1178.95 458.665 1181.45 C 457.207 1181.82 456.738 1182.3 455.31 1181.49 C 449.867 1178.42 446.389 1168.85 444.424 1163.05 C 428.362 1115.61 458.728 929.147 473.242 880.931 C 478.49 863.499 485.745 846.572 492.596 829.715 C 502.219 806.037 512.02 782.157 523.597 759.355 C 554.341 698.805 605.032 671.263 660.104 637.445 C 679.194 625.722 698.07 613.293 717.745 602.573 C 747.136 586.559 780.721 572.643 812.514 562.192 C 865.155 544.889 921.689 540.424 976.734 540.125 C 992.332 540.04 1008.37 539.681 1023.86 541.693 C 1039.84 543.767 1054.92 549 1070.6 552.331 C 1084.16 555.21 1100.88 556.088 1113.19 562.685 C 1127.93 570.589 1131.97 594.376 1136.8 609.138 C 1132.63 610.208 1133.69 609.779 1128.95 608.538 L 1126.59 608.318 L 1124.62 603.565 C 1112.4 614.914 1098.08 597.573 1087.68 590.509 C 1082.05 586.688 1075.89 580.093 1072.92 573.964 C 998.194 550.902 899.916 555.513 824.464 576.89 C 800.143 583.78 776.894 602.999 754.916 614.994 C 723.962 632.911 690.715 650.152 661.545 670.722 C 581.125 727.924 521.954 810.189 493.301 904.627 C 487.31 924.648 483.545 945.789 478.298 966.059 C 472.534 988.324 462.85 1012.74 460.456 1035.44 C 457.852 1060.13 459.917 1086.17 458.576 1111.22 C 457.734 1126.94 454.803 1158.93 458.608 1173.63 C 460.004 1175.09 459.781 1175.06 461.446 1176.11 z"/>
<path transform="translate(0,0)" fill="rgb(119,163,90)" d="M 1072.92 573.964 C 1072.88 570.175 1072.55 569.176 1074.75 566.078 C 1091.16 554.747 1126.71 580.598 1124.62 603.565 C 1112.4 614.914 1098.08 597.573 1087.68 590.509 C 1082.05 586.688 1075.89 580.093 1072.92 573.964 z"/>
<path transform="translate(0,0)" fill="rgb(37,72,31)" d="M 808.487 630.434 C 803.477 625.914 800.333 623.595 798.618 617.137 C 798.974 613.355 800.642 610.985 803.521 608.653 C 832.161 585.455 957.774 569.275 993.367 573.952 C 1022.34 577.758 1068.08 599.641 1085.67 623.205 C 1098.03 639.771 1098.13 689.513 1098.27 710.55 C 1098.3 716.776 1099.15 724.264 1097.85 730.265 C 1097.47 732.048 1096.45 734.347 1094.91 735.366 C 1092.04 737.264 1088.61 736.7 1085.48 735.826 C 1079.23 734.076 1073.32 731.4 1066.99 729.816 C 1072.05 716.66 1076.12 712.203 1079.01 697.682 C 1080.49 682.063 1082.52 648.895 1072.7 635.181 C 1033.99 581.135 944.454 598.057 887.401 602.199 C 860.955 604.119 830.869 616.998 808.487 630.434 z"/>
<path transform="translate(0,0)" fill="rgb(93,142,71)" d="M 1136.8 609.138 C 1141.26 619.581 1142.72 624.553 1145.67 634.709 C 1149.08 646.454 1155.38 686.303 1161.75 694.199 C 1162.11 698.316 1170.23 713.921 1172.65 719.71 C 1162.18 725.478 1160.7 726.114 1148.84 726.772 C 1140.09 696.24 1132.91 664.264 1122.43 633.916 C 1119.18 624.514 1118.85 613.697 1128.95 608.538 C 1133.69 609.779 1132.63 610.208 1136.8 609.138 z"/>
<path transform="translate(0,0)" fill="rgb(160,22,17)" d="M 973.734 719.598 C 981.082 720.446 990.033 720.906 996.261 724.798 C 996.73 725.768 997.14 726.294 997.233 727.268 C 994.306 728.349 987.867 731.022 985.091 731.157 C 981.903 727.116 977.5 723.201 973.734 719.598 z"/>
</svg>